# xmcd CD database file
#
# Track frame offsets:
#	150
#	12007
#	25620
#	50990
#	66740
#	80527
#	93652
#	107912
#	119845
#
# Disc length: 1906 seconds
#
# Revision: 1
# Processed by: cddbd v1.5.1PL0 Copyright (c) Steve Scherf et al.
# Submitted via: CDex 1.51
#
DISCID=80077009
DTITLE=Dinah Shore - Dinah,Yes Indeed!
DYEAR=1989
DGENRE=Jazz
TTITLE0=It all depends on you
TTITLE1=Falling in love with love
TTITLE2=Medley Where Or When, Easy To Love, Get Out Town, They Can't Take That Away From Me
TTITLE3=Sentimental Journey
TTITLE4=The one I love(belong to somebody else)
TTITLE5=I'm old fashioned
TTITLE6=Love is here to stay
TTITLE7=Taking a chance on love
TTITLE8=Yes Indeed! interpolation(listen littel children)
EXTD=YEAR: 1989
EXTT0=
EXTT1=
EXTT2=
EXTT3=
EXTT4=
EXTT5=
EXTT6=
EXTT7=
EXTT8=
PLAYORDER=
